<svg width="437" height="141" viewBox="0 0 437 141" fill="none" xmlns="http://www.w3.org/2000/svg">
<path d="M373.844 140C380.629 140 385.864 133.619 385.864 124.53C385.864 120.083 384.119 112.928 380.823 102.873C377.528 92.8177 375.783 83.5359 375.783 75.221V72.7072C384.313 78.1215 390.129 82.5691 392.843 85.663C398.465 92.0442 413.199 110.221 424.638 110.221C431.423 110.221 436.076 105.387 436.076 99.5856C436.076 96.2983 434.719 93.3978 432.005 90.4972C426.576 84.8895 414.556 82.1823 400.404 79.0884C393.231 77.5414 385.67 74.6409 377.334 70C385.864 65.3591 393.619 62.2652 400.986 60.7182C408.159 59.1713 414.556 57.6243 419.985 55.884C431.229 52.2099 436.076 46.6022 436.076 40.0276C436.076 34.0331 431.423 29.779 425.219 29.779C421.342 29.779 417.658 30.9392 413.975 33.453C410.485 35.7735 404.088 41.9613 394.976 52.0166C385.476 61.105 386.833 60.3315 375.783 67.2928C375.783 58.0111 377.528 48.1492 381.017 37.9006C384.507 27.6519 386.252 20.1105 386.252 15.4696C386.252 6.18785 381.017 0 374.232 0C367.253 0 362.212 6.57458 362.212 15.4696C362.212 22.2376 367.059 36.7403 370.161 46.0221C371.711 50.663 372.293 57.0442 372.293 64.779V67.2928C364.538 62.6519 358.528 57.8177 354.263 52.9834C345.733 43.3149 333.713 29.779 323.438 29.779C316.653 29.779 312 34.2265 312 40.0276C312 43.3149 313.357 46.4088 315.877 49.3094C320.918 55.1105 332.55 57.6243 347.09 60.7182C354.457 62.2652 362.406 65.3591 370.742 70C362.6 74.6409 354.845 77.7348 347.866 79.0884C340.693 80.442 334.295 82.1823 328.673 83.7293C317.234 86.8232 312 93.2044 312 99.5856C312 105.387 317.041 110.221 323.244 110.221C333.326 110.221 342.825 99.5856 352.519 88.7569C357.365 83.3425 363.763 77.9282 372.293 72.7072C372.293 82.7624 370.548 92.4309 367.059 102.486C363.569 112.348 361.824 119.696 361.824 124.53C361.824 133.232 366.671 140 373.844 140Z" fill="white"/>
<path d="M225.818 141L235.273 105.093L261.091 131.57L251.273 96.0259L286.909 105.819L260.364 80.0674L296 71L260.364 61.5699L286.909 35.8186L251.273 45.6114L261.091 10.43L235.273 36.544L225.818 1L216.727 36.544L190.909 10.43L200.727 45.6114L165.091 35.8186L191.636 61.5699L156 71L191.636 80.0674L165.091 105.819L200.727 96.0259L190.909 131.57L216.727 105.093L225.818 141Z" fill="white"/>
<path d="M64.2308 141H75.7692L72.6923 85.6154L91.5385 137.923L101.923 133.692L78.0769 83.3077L115.385 124.846L123.462 116.385L82.3077 79.4615L132.308 103.308L136.923 92.5385L84.2308 74.0769L140 76.7692V65.2308L84.2308 68.3077L136.923 49.4615L132.308 39.0769L82.3077 62.9231L123.462 25.6154L115.385 17.5385L78.0769 58.6923L101.923 8.6923L91.5385 4.07692L72.6923 56.3846L75.7692 1H64.2308L66.9231 56.7692L48.4615 4.07692L37.6923 8.6923L61.5385 58.6923L24.6154 17.5385L16.1538 25.6154L57.6923 62.9231L7.30769 39.0769L3.07692 49.4615L55.3846 68.3077L0 65.2308V76.7692L55.3846 74.0769L3.07692 92.5385L7.30769 103.308L57.6923 79.4615L16.1538 116.385L24.6154 124.846L61.5385 83.3077L37.6923 133.692L48.4615 137.923L66.9231 85.6154L64.2308 141Z" fill="white"/>
</svg>
